<?xml version="1.0" standalone="no"?>
<!DOCTYPE svg PUBLIC "-//W3C//DTD SVG 20010904//EN"
 "http://www.w3.org/TR/2001/REC-SVG-20010904/DTD/svg10.dtd">
<svg version="1.0" xmlns="http://www.w3.org/2000/svg"
 width="100.000000pt" height="100.000000pt" viewBox="0 0 100.000000 100.000000"
 preserveAspectRatio="xMidYMid meet">
<metadata>
Created by potrace 1.15, written by Peter Selinger 2001-2017
</metadata>
<g transform="translate(0.000000,100.000000) scale(0.100000,-0.100000)"
fill="#000000" stroke="none">
<path d="M267 852 c-23 -26 -22 -94 1 -115 26 -23 94 -22 115 1 23 26 22 94
-1 115 -26 23 -94 22 -115 -1z"/>
<path d="M617 852 c-23 -26 -22 -94 1 -115 26 -23 94 -22 115 1 23 26 22 94
-1 115 -26 23 -94 22 -115 -1z"/>
<path d="M199 671 c-29 -29 -29 -31 -29 -144 0 -98 3 -116 18 -130 10 -10 23
-17 29 -17 6 0 14 -53 19 -132 l9 -133 80 0 80 0 3 55 c5 123 30 139 34 23 l3
-78 60 0 60 0 3 75 c4 108 26 113 32 7 l5 -82 64 -3 c45 -2 67 1 72 10 5 7 9
52 9 101 0 86 0 87 25 87 23 0 25 4 25 44 0 28 6 48 16 57 14 11 16 27 10 98
-11 139 -51 191 -151 191 -60 0 -107 -26 -126 -69 -11 -24 -20 -31 -41 -31
-22 0 -28 5 -28 21 0 11 -13 34 -29 50 -29 28 -33 29 -126 29 -93 0 -97 -1
-126 -29z m211 -4 c34 -17 56 -64 41 -89 -13 -22 -14 -53 -2 -76 7 -13 3 -23
-15 -39 l-24 -21 -2 76 c-1 54 -3 35 -8 -63 -4 -77 -10 -182 -15 -233 -7 -88
-8 -92 -31 -92 -24 0 -24 0 -26 133 l-2 132 -3 -132 c-4 -132 -4 -133 -27
-133 -21 0 -24 5 -30 68 -3 37 -10 141 -14 232 l-7 165 -5 -100 -5 -100 -22
23 c-20 19 -23 32 -23 105 0 90 12 125 50 144 32 16 138 16 170 0z m151 -226
c24 -25 29 -38 29 -79 0 -32 -5 -54 -15 -62 -13 -11 -15 -5 -17 46 -1 67 -4
44 -14 -109 l-6 -107 -33 0 -33 0 -6 108 c-10 152 -13 175 -14 108 -2 -51 -4
-57 -17 -46 -10 8 -15 30 -15 62 0 41 5 54 29 79 18 17 40 29 56 29 16 0 38
-12 56 -29z"/>
</g>
</svg>
